<svg xmlns="http://www.w3.org/2000/svg" width="1600" height="1420" viewBox="0 0 1600 1420" font-family="'PingFang TC','Noto Sans CJK TC','Microsoft JhengHei','Heiti TC',sans-serif">
  <defs>
    <linearGradient id="bg" x1="0" y1="0" x2="0" y2="1">
      <stop offset="0" stop-color="#0B1220"/>
      <stop offset="1" stop-color="#0E1A33"/>
    </linearGradient>
    <linearGradient id="loopHead" x1="0" y1="0" x2="1" y2="0">
      <stop offset="0" stop-color="#22D3EE"/>
      <stop offset="1" stop-color="#A78BFA"/>
    </linearGradient>
    <linearGradient id="domainGrad" x1="0" y1="0" x2="1" y2="0">
      <stop offset="0" stop-color="#1E1535"/>
      <stop offset="1" stop-color="#0E1A33"/>
    </linearGradient>
    <marker id="arrow" markerWidth="10" markerHeight="10" refX="7" refY="3" orient="auto">
      <path d="M0,0 L7,3 L0,6 Z" fill="#A78BFA"/>
    </marker>
    <marker id="arrowDim" markerWidth="10" markerHeight="10" refX="7" refY="3" orient="auto">
      <path d="M0,0 L7,3 L0,6 Z" fill="#93A4C7"/>
    </marker>
    <marker id="arrowCyan" markerWidth="10" markerHeight="10" refX="7" refY="3" orient="auto">
      <path d="M0,0 L7,3 L0,6 Z" fill="#5EEAD4"/>
    </marker>
    <marker id="arrowYellow" markerWidth="10" markerHeight="10" refX="7" refY="3" orient="auto">
      <path d="M0,0 L7,3 L0,6 Z" fill="#FBBF24"/>
    </marker>
  </defs>

  <rect width="1600" height="1000" fill="url(#bg)"/>

  <!-- Header -->
  <text x="60" y="72" fill="#E5EDFF" font-size="40" font-weight="700">SWAG QA Debug Hunter <tspan fill="#A78BFA">v1.0</tspan></text>
  <text x="60" y="110" fill="#93A4C7" font-size="20">swag.live 成人直播 · 博弈遊戲 · 金流支付 · 買分後台　·　7 階段閉環 × 三層防線</text>

  <!-- Business Domain badges top-right -->
  <rect x="1020" y="52" width="130" height="28" rx="14" fill="#1A1235" stroke="#6D28D9"/>
  <text x="1085" y="70" text-anchor="middle" fill="#C4B5FD" font-size="12" font-weight="600">博弈 龍虎/百家樂</text>

  <rect x="1158" y="52" width="110" height="28" rx="14" fill="#12201A" stroke="#059669"/>
  <text x="1213" y="70" text-anchor="middle" fill="#6EE7B7" font-size="12" font-weight="600">直播 swag.live</text>

  <rect x="1276" y="52" width="130" height="28" rx="14" fill="#1A1512" stroke="#D97706"/>
  <text x="1341" y="70" text-anchor="middle" fill="#FCD34D" font-size="12" font-weight="600">綠界/支付寶/微信</text>

  <rect x="1414" y="52" width="110" height="28" rx="14" fill="#0E1A2A" stroke="#2563EB"/>
  <text x="1469" y="70" text-anchor="middle" fill="#93C5FD" font-size="12" font-weight="600">API 買分後台</text>

  <text x="1540" y="102" text-anchor="end" fill="#64748B" font-size="14">QA 正確性帽：系統會不會算錯</text>
  <text x="1540" y="120" text-anchor="end" fill="#64748B" font-size="14">安全帽：攻擊者能不能免費拿點數</text>

  <!-- Section A title -->
  <text x="60" y="168" fill="#A78BFA" font-size="17" font-weight="700" letter-spacing="2">7 階段閉環　CLOSED LOOP</text>

  <!-- 7 stage boxes -->
  <!-- Stage 0: THREAT-MODEL -->
  <rect x="40" y="188" width="203" height="155" rx="14" fill="#111C34" stroke="#1E3358" stroke-width="1.5"/>
  <rect x="40" y="188" width="203" height="34" rx="14" fill="#13243F"/>
  <circle cx="63" cy="205" r="11" fill="#A78BFA"/><text x="63" y="210" text-anchor="middle" fill="#1E1535" font-size="13" font-weight="700">0</text>
  <text x="82" y="210" fill="#C4B5FD" font-size="12" font-weight="700">THREAT-MODEL</text>
  <text x="62" y="262" fill="#E5EDFF" font-size="20" font-weight="700">威脅建模</text>
  <text x="62" y="290" fill="#8FA3C6" font-size="12">STRIDE-SWAG</text>
  <text x="62" y="308" fill="#8FA3C6" font-size="12">點數流 × 資金流</text>
  <text x="62" y="326" fill="#C4B5FD" font-size="11">博弈/直播/金流/買分</text>

  <!-- Stage 1: DETECT -->
  <rect x="259" y="188" width="203" height="155" rx="14" fill="#111C34" stroke="#1E3358" stroke-width="1.5"/>
  <rect x="259" y="188" width="203" height="34" rx="14" fill="#13243F"/>
  <circle cx="282" cy="205" r="11" fill="#A78BFA"/><text x="282" y="210" text-anchor="middle" fill="#1E1535" font-size="13" font-weight="700">1</text>
  <text x="301" y="210" fill="#C4B5FD" font-size="12" font-weight="700">DETECT</text>
  <text x="281" y="262" fill="#E5EDFF" font-size="20" font-weight="700">偵測 · 雙軌</text>
  <text x="281" y="290" fill="#8FA3C6" font-size="12">正確性 ＋ 安全</text>
  <text x="281" y="308" fill="#8FA3C6" font-size="12">Bandit · Semgrep</text>
  <text x="281" y="326" fill="#C4B5FD" font-size="11">taint source→sink</text>

  <!-- Stage 2: TRIAGE -->
  <rect x="478" y="188" width="203" height="155" rx="14" fill="#111C34" stroke="#1E3358" stroke-width="1.5"/>
  <rect x="478" y="188" width="203" height="34" rx="14" fill="#13243F"/>
  <circle cx="501" cy="205" r="11" fill="#A78BFA"/><text x="501" y="210" text-anchor="middle" fill="#1E1535" font-size="13" font-weight="700">2</text>
  <text x="520" y="210" fill="#C4B5FD" font-size="12" font-weight="700">TRIAGE</text>
  <text x="500" y="262" fill="#E5EDFF" font-size="20" font-weight="700">分類定級</text>
  <text x="500" y="290" fill="#8FA3C6" font-size="12">點數計價風險</text>
  <text x="500" y="308" fill="#8FA3C6" font-size="12">期望資損 (ALE)</text>
  <text x="500" y="326" fill="#C4B5FD" font-size="11">P0 強制情境 13 項</text>

  <!-- Stage 2.5: REPRODUCE -->
  <rect x="697" y="188" width="203" height="155" rx="14" fill="#111C34" stroke="#1E3358" stroke-width="1.5"/>
  <rect x="697" y="188" width="203" height="34" rx="14" fill="#13243F"/>
  <circle cx="724" cy="205" r="11" fill="#A78BFA"/><text x="724" y="210" text-anchor="middle" fill="#1E1535" font-size="11" font-weight="700">2.5</text>
  <text x="743" y="210" fill="#C4B5FD" font-size="12" font-weight="700">REPRODUCE</text>
  <text x="719" y="262" fill="#E5EDFF" font-size="20" font-weight="700">復現</text>
  <text x="719" y="290" fill="#8FA3C6" font-size="12">Robot Framework</text>
  <text x="719" y="308" fill="#8FA3C6" font-size="12">Playwright PoC</text>
  <text x="719" y="326" fill="#C4B5FD" font-size="11">違反不變量＝成功</text>

  <!-- Stage 3: FIX -->
  <rect x="916" y="188" width="203" height="155" rx="14" fill="#111C34" stroke="#1E3358" stroke-width="1.5"/>
  <rect x="916" y="188" width="203" height="34" rx="14" fill="#13243F"/>
  <circle cx="939" cy="205" r="11" fill="#A78BFA"/><text x="939" y="210" text-anchor="middle" fill="#1E1535" font-size="13" font-weight="700">3</text>
  <text x="958" y="210" fill="#C4B5FD" font-size="12" font-weight="700">FIX</text>
  <text x="938" y="262" fill="#E5EDFF" font-size="20" font-weight="700">修復</text>
  <text x="938" y="290" fill="#8FA3C6" font-size="12">5-Why 根因</text>
  <text x="938" y="308" fill="#8FA3C6" font-size="12">Python ／ JS 修復</text>
  <text x="938" y="326" fill="#C4B5FD" font-size="11">＋ 業務合理性守衛</text>

  <!-- Stage 4: VERIFY -->
  <rect x="1135" y="188" width="203" height="155" rx="14" fill="#111C34" stroke="#1E3358" stroke-width="1.5"/>
  <rect x="1135" y="188" width="203" height="34" rx="14" fill="#13243F"/>
  <circle cx="1158" cy="205" r="11" fill="#A78BFA"/><text x="1158" y="210" text-anchor="middle" fill="#1E1535" font-size="13" font-weight="700">4</text>
  <text x="1177" y="210" fill="#C4B5FD" font-size="12" font-weight="700">VERIFY</text>
  <text x="1157" y="262" fill="#E5EDFF" font-size="20" font-weight="700">驗收</text>
  <text x="1157" y="290" fill="#8FA3C6" font-size="12">不變量恆成立</text>
  <text x="1157" y="308" fill="#8FA3C6" font-size="12">Playwright ＋ ZAP</text>
  <text x="1157" y="326" fill="#C4B5FD" font-size="11">Hypothesis 屬性測試</text>

  <!-- Stage 5: GUARD+RECYCLE -->
  <rect x="1354" y="188" width="203" height="155" rx="14" fill="#1A1235" stroke="#6D28D9" stroke-width="1.5"/>
  <rect x="1354" y="188" width="203" height="34" rx="14" fill="#231540"/>
  <circle cx="1377" cy="205" r="11" fill="#7C3AED"/><text x="1377" y="210" text-anchor="middle" fill="#EDE9FE" font-size="13" font-weight="700">5</text>
  <text x="1396" y="210" fill="#C4B5FD" font-size="11" font-weight="700">GUARD+RECYCLE</text>
  <text x="1376" y="262" fill="#F3EDFF" font-size="20" font-weight="700">守衛 · 回收</text>
  <text x="1376" y="290" fill="#A78BFA" font-size="12">知識沉澱</text>
  <text x="1376" y="308" fill="#A78BFA" font-size="12">RULE-GAM ／ PAY</text>
  <text x="1376" y="326" fill="#C4B5FD" font-size="11">RULE-CRED ／ LIVE</text>

  <!-- arrows between boxes -->
  <g stroke="#A78BFA" stroke-width="2.5" fill="none">
    <line x1="245" y1="265" x2="257" y2="265" marker-end="url(#arrow)"/>
    <line x1="464" y1="265" x2="476" y2="265" marker-end="url(#arrow)"/>
    <line x1="683" y1="265" x2="695" y2="265" marker-end="url(#arrow)"/>
    <line x1="902" y1="265" x2="914" y2="265" marker-end="url(#arrow)"/>
    <line x1="1121" y1="265" x2="1133" y2="265" marker-end="url(#arrow)"/>
    <line x1="1340" y1="265" x2="1352" y2="265" marker-end="url(#arrow)"/>
  </g>

  <!-- RECYCLE return arrow -->
  <path d="M1455,343 C1455,400 1455,400 1300,400 L296,400 C141,400 141,400 141,348"
        fill="none" stroke="#7C3AED" stroke-width="2.5" stroke-dasharray="7 6" marker-end="url(#arrow)"/>
  <rect x="670" y="386" width="260" height="28" rx="14" fill="#1A1235" stroke="#6D28D9"/>
  <text x="800" y="405" text-anchor="middle" fill="#C4B5FD" font-size="13" font-weight="700">RECYCLE 規則反哺，下輪更準</text>

  <!-- divider -->
  <line x1="60" y1="455" x2="1540" y2="455" stroke="#1E3358" stroke-width="1"/>

  <!-- Section B title -->
  <text x="60" y="498" fill="#FBBF24" font-size="17" font-weight="700" letter-spacing="2">三層防線　DEFENSE IN DEPTH</text>
  <text x="60" y="522" fill="#64748B" font-size="14">由上而下：抓得越廣 → 越深；最後一張網永遠兜得住</text>

  <!-- Layer 1: 特徵比對 -->
  <rect x="60" y="538" width="980" height="80" rx="12" fill="#0E2730" stroke="#1C4A57"/>
  <rect x="60" y="538" width="10" height="80" rx="5" fill="#22D3EE"/>
  <text x="92" y="574" fill="#9EE9F5" font-size="20" font-weight="700">① 特徵比對</text>
  <text x="92" y="598" fill="#7FA9B3" font-size="13">抓「已知的錯誤寫法」　·　swag-bug / gambling / payment-patterns、rules-registry、Semgrep ／ Bandit ／ ESLint</text>
  <text x="1020" y="584" text-anchor="end" fill="#5BCBD8" font-size="13">已知漏洞</text>

  <!-- Layer 2: Taint -->
  <rect x="60" y="630" width="980" height="80" rx="12" fill="#2A2410" stroke="#5A4A1C"/>
  <rect x="60" y="630" width="10" height="80" rx="5" fill="#FBBF24"/>
  <text x="92" y="666" fill="#FCD974" font-size="20" font-weight="700">② Taint 汙染流 source → sink</text>
  <text x="92" y="690" fill="#B3A06A" font-size="13">抓「已知的攻擊面」　·　payment-gateway-patterns、點數資金流、簽章 ／ 冪等 ／ 金額清洗閘登錄</text>
  <text x="1020" y="676" text-anchor="end" fill="#E5B84B" font-size="13">攻擊路徑</text>

  <!-- Layer 3: 不變量 -->
  <rect x="60" y="722" width="980" height="80" rx="12" fill="#1A1235" stroke="#4A3A6B"/>
  <rect x="60" y="722" width="10" height="80" rx="5" fill="#A78BFA"/>
  <text x="92" y="758" fill="#C9B8FB" font-size="20" font-weight="700">③ SWAG 業務不變量</text>
  <text x="92" y="782" fill="#9F8FC4" font-size="13">抓「未知手法的後果」　·　點數守恆、餘額非負、賠率合理、回調金額一致　→ Hypothesis 屬性測試當 oracle</text>
  <text x="1020" y="768" text-anchor="end" fill="#B49BFB" font-size="13">未知後果</text>

  <!-- Evidence gate panel -->
  <rect x="1080" y="538" width="460" height="264" rx="14" fill="#10182B" stroke="#243a63" stroke-width="1.5"/>
  <text x="1110" y="576" fill="#F87171" font-size="18" font-weight="700">證據門檻　EVIDENCE GATE</text>
  <text x="1110" y="600" fill="#8FA3C6" font-size="13">沒有可重現的攻擊，就沒有 P0</text>

  <rect x="1110" y="620" width="150" height="48" rx="10" fill="#2A1E22" stroke="#7A3B3B"/>
  <text x="1185" y="640" text-anchor="middle" fill="#FCA5A5" font-size="14" font-weight="700">candidate</text>
  <text x="1185" y="658" text-anchor="middle" fill="#B98787" font-size="11">疑似，禁喊高危</text>

  <line x1="1262" y1="644" x2="1356" y2="644" stroke="#93A4C7" stroke-width="2.5" fill="none" marker-end="url(#arrowDim)"/>

  <rect x="1360" y="620" width="160" height="48" rx="10" fill="#1A1235" stroke="#6D28D9"/>
  <text x="1440" y="640" text-anchor="middle" fill="#C4B5FD" font-size="14" font-weight="700">confirmed</text>
  <text x="1440" y="658" text-anchor="middle" fill="#9F8FC4" font-size="11">才進 TRIAGE</text>

  <text x="1110" y="705" fill="#9FB4D8" font-size="12.5">通過門檻需備齊：</text>
  <text x="1124" y="727" fill="#8FA3C6" font-size="12.5">· 汙染路徑（source→sink 可定位）</text>
  <text x="1124" y="747" fill="#8FA3C6" font-size="12.5">· 復現腳本（RF ／ Playwright PoC）</text>
  <text x="1124" y="767" fill="#8FA3C6" font-size="12.5">· 反證檢查（主動證明自己是錯的）</text>
  <text x="1124" y="787" fill="#8FA3C6" font-size="12.5">· 業務不變量被違反（點數守恆等）</text>

  <!-- Invariant quick ref panel -->
  <rect x="60" y="820" width="980" height="110" rx="12" fill="#0D1421" stroke="#1E3358" stroke-width="1"/>
  <text x="90" y="848" fill="#64748B" font-size="13" font-weight="700">SWAG 業務不變量速查　INV-SWAG</text>

  <text x="90" y="872" fill="#6EE7B7" font-size="12">INV-G-01 博弈：點數守恆（下注 = 退款 + 賠付 + 平台抽水）</text>
  <text x="90" y="890" fill="#FCD34D" font-size="12">INV-G-02 博弈：RNG 不可預測（secrets 模組，非 random）</text>
  <text x="90" y="908" fill="#93C5FD" font-size="12">INV-P-01 支付：回調金額 == 訂單金額（嚴格比對）</text>

  <text x="550" y="872" fill="#C4B5FD" font-size="12">INV-F-01 點數：餘額永不為負（原子扣減）</text>
  <text x="550" y="890" fill="#FCA5A5" font-size="12">INV-F-02 點數：充值冪等（同 txn_id 只入帳一次）</text>
  <text x="550" y="908" fill="#86EFAC" font-size="12">INV-L-01 直播：打賞冪等（同 request_id 只扣一次）</text>

  <!-- Footer stat chips -->
  <g font-size="13" font-weight="600">
    <rect x="60" y="942" width="170" height="40" rx="20" fill="#13243F" stroke="#1E3358"/>
    <text x="145" y="967" text-anchor="middle" fill="#9FB4D8">知識庫 18+ 檔</text>

    <rect x="242" y="942" width="150" height="40" rx="20" fill="#13243F" stroke="#1E3358"/>
    <text x="317" y="967" text-anchor="middle" fill="#9FB4D8">7 階段閉環</text>

    <rect x="404" y="942" width="200" height="40" rx="20" fill="#1A1235" stroke="#6D28D9"/>
    <text x="504" y="967" text-anchor="middle" fill="#C4B5FD">4 大業務領域覆蓋</text>

    <rect x="616" y="942" width="230" height="40" rx="20" fill="#12201A" stroke="#059669"/>
    <text x="731" y="967" text-anchor="middle" fill="#6EE7B7">RF · Playwright · Appium</text>

    <rect x="858" y="942" width="310" height="40" rx="20" fill="#1A1512" stroke="#D97706"/>
    <text x="1013" y="967" text-anchor="middle" fill="#FCD34D">21 條靜態規則 · Semgrep ／ Bandit</text>
  </g>
  <text x="1540" y="962" text-anchor="end" fill="#475569" font-size="13">Python · FastAPI · React · Flutter Web · Robot Framework</text>

  <!-- ==================== Section C: Design QA ==================== -->

  <!-- Divider -->
  <line x1="60" y1="1010" x2="1540" y2="1010" stroke="#1E3358" stroke-width="1"/>

  <!-- Section C Title -->
  <text x="60" y="1038" fill="#5EEAD4" font-size="17" font-weight="700" letter-spacing="2">Design QA 流程　SPEC + Figma → UI 自動驗查</text>
  <text x="60" y="1060" fill="#64748B" font-size="14">上傳 SPEC 文件 + Figma 截圖，Claude 自動比對差異、找出問題、產出可執行的 Playwright 測試腳本</text>
  <!-- Badge -->
  <rect x="1380" y="1022" width="160" height="28" rx="14" fill="#0E2730" stroke="#5EEAD4"/>
  <text x="1460" y="1040" text-anchor="middle" fill="#5EEAD4" font-size="12" font-weight="600">agents/design-qa.md</text>

  <!-- ====== COLUMN 1: Inputs ====== -->
  <!-- SPEC 文件 -->
  <rect x="60" y="1092" width="248" height="65" rx="10" fill="#0E2730" stroke="#22D3EE" stroke-width="1.5"/>
  <text x="84" y="1117" fill="#22D3EE" font-size="13" font-weight="700">SPEC 文件</text>
  <text x="84" y="1135" fill="#7FA9B3" font-size="11">需求規格 · 驗收標準</text>
  <text x="84" y="1150" fill="#4A8A98" font-size="11">（.md / .pdf / 直接貼文字）</text>

  <!-- Figma 設計稿 -->
  <rect x="60" y="1170" width="248" height="65" rx="10" fill="#1A1020" stroke="#A78BFA" stroke-width="1.5"/>
  <text x="84" y="1195" fill="#A78BFA" font-size="13" font-weight="700">Figma 設計稿</text>
  <text x="84" y="1213" fill="#8B6FB5" font-size="11">截圖 PNG / JPG</text>
  <text x="84" y="1228" fill="#5D4A7A" font-size="11">（或 Figma 分享連結）</text>

  <!-- 實際截圖 -->
  <rect x="60" y="1248" width="248" height="65" rx="10" fill="#12201A" stroke="#6EE7B7" stroke-width="1.5"/>
  <text x="84" y="1273" fill="#6EE7B7" font-size="13" font-weight="700">實際畫面截圖</text>
  <text x="84" y="1291" fill="#4EA882" font-size="11">測試環境 / 開發板截圖</text>
  <text x="84" y="1306" fill="#2D6B52" font-size="11">（選填：程式碼）</text>

  <!-- Fan-in: inputs → gathering bar at x=322 → agent -->
  <line x1="308" y1="1124" x2="322" y2="1124" stroke="#5EEAD4" stroke-width="1.5"/>
  <line x1="308" y1="1202" x2="322" y2="1202" stroke="#A78BFA" stroke-width="1.5"/>
  <line x1="308" y1="1280" x2="322" y2="1280" stroke="#6EE7B7" stroke-width="1.5"/>
  <line x1="322" y1="1124" x2="322" y2="1280" stroke="#93A4C7" stroke-width="1.5"/>
  <line x1="322" y1="1202" x2="333" y2="1202" stroke="#93A4C7" stroke-width="2" marker-end="url(#arrowDim)"/>

  <!-- ====== COLUMN 2: Agent ====== -->
  <rect x="335" y="1085" width="268" height="238" rx="14" fill="#0B1928" stroke="#22D3EE" stroke-width="2"/>
  <rect x="335" y="1085" width="268" height="38" rx="14" fill="#0D2B3E"/>
  <text x="469" y="1108" text-anchor="middle" fill="#22D3EE" font-size="13" font-weight="700">Claude Design QA 代理人</text>
  <text x="469" y="1127" text-anchor="middle" fill="#5A9DB5" font-size="10.5">agents/design-qa.md</text>

  <text x="355" y="1158" fill="#9EE9F5" font-size="12.5" font-weight="600">執行 5 大 UI 驗查：</text>
  <text x="367" y="1178" fill="#7FA9B3" font-size="11.5">① 視覺一致性比對（Figma vs 實作）</text>
  <text x="367" y="1196" fill="#7FA9B3" font-size="11.5">② SPEC 需求逐條符合性</text>
  <text x="367" y="1214" fill="#7FA9B3" font-size="11.5">③ SWAG 業務 UI 邏輯</text>
  <text x="367" y="1232" fill="#7FA9B3" font-size="11.5">④ WCAG 2.1 AA 可及性稽核</text>
  <text x="367" y="1250" fill="#7FA9B3" font-size="11.5">⑤ 響應式斷點 375/768/1440px</text>

  <text x="355" y="1277" fill="#5EEAD4" font-size="11">比對差異 → P0/P1/P2 分級 → 產出</text>
  <text x="355" y="1295" fill="#3A6F7A" font-size="10.5">knowledge-base/design-qa-patterns.md</text>

  <!-- Fan-out: agent → spreading bar at x=612 → checks -->
  <line x1="603" y1="1204" x2="612" y2="1204" stroke="#FBBF24" stroke-width="2"/>
  <line x1="612" y1="1115" x2="612" y2="1307" stroke="#FBBF24" stroke-width="1.5"/>

  <!-- ====== COLUMN 3: 5 Checks ====== -->
  <!-- ① 視覺一致性 -->
  <line x1="612" y1="1115" x2="628" y2="1115" stroke="#FBBF24" stroke-width="1.5" marker-end="url(#arrowYellow)"/>
  <rect x="632" y="1094" width="255" height="42" rx="8" fill="#2A2410" stroke="#FBBF24" stroke-width="1.5"/>
  <text x="650" y="1111" fill="#FDE68A" font-size="12.5" font-weight="600">① 視覺一致性</text>
  <text x="650" y="1129" fill="#A89040" font-size="11">顏色 · 字型 · 間距 · 元件狀態</text>

  <!-- ② SPEC 符合性 -->
  <line x1="612" y1="1163" x2="628" y2="1163" stroke="#FBBF24" stroke-width="1.5" marker-end="url(#arrowYellow)"/>
  <rect x="632" y="1142" width="255" height="42" rx="8" fill="#2A2410" stroke="#FBBF24" stroke-width="1.5"/>
  <text x="650" y="1159" fill="#FDE68A" font-size="12.5" font-weight="600">② SPEC 符合性</text>
  <text x="650" y="1177" fill="#A89040" font-size="11">逐條對照驗收標準 ✅ / ⚠️ / ❌</text>

  <!-- ③ SWAG UI 邏輯 -->
  <line x1="612" y1="1211" x2="628" y2="1211" stroke="#FBBF24" stroke-width="1.5" marker-end="url(#arrowYellow)"/>
  <rect x="632" y="1190" width="255" height="42" rx="8" fill="#2A2410" stroke="#FBBF24" stroke-width="1.5"/>
  <text x="650" y="1207" fill="#FDE68A" font-size="12.5" font-weight="600">③ SWAG 業務 UI 邏輯</text>
  <text x="650" y="1225" fill="#A89040" font-size="11">博弈 · 打賞 · 支付 · 買分特定 UI</text>

  <!-- ④ WCAG 可及性 -->
  <line x1="612" y1="1259" x2="628" y2="1259" stroke="#FBBF24" stroke-width="1.5" marker-end="url(#arrowYellow)"/>
  <rect x="632" y="1238" width="255" height="42" rx="8" fill="#2A2410" stroke="#FBBF24" stroke-width="1.5"/>
  <text x="650" y="1255" fill="#FDE68A" font-size="12.5" font-weight="600">④ WCAG 2.1 可及性</text>
  <text x="650" y="1273" fill="#A89040" font-size="11">色彩對比 · 鍵盤操作 · aria 標籤</text>

  <!-- ⑤ 響應式 -->
  <line x1="612" y1="1307" x2="628" y2="1307" stroke="#FBBF24" stroke-width="1.5" marker-end="url(#arrowYellow)"/>
  <rect x="632" y="1286" width="255" height="42" rx="8" fill="#2A2410" stroke="#FBBF24" stroke-width="1.5"/>
  <text x="650" y="1303" fill="#FDE68A" font-size="12.5" font-weight="600">⑤ 響應式斷點</text>
  <text x="650" y="1321" fill="#A89040" font-size="11">375 / 768 / 1440px 截圖比對</text>

  <!-- Fan-in: checks → output bar at x=893 → 2 outputs -->
  <line x1="887" y1="1115" x2="893" y2="1115" stroke="#5EEAD4" stroke-width="1.5"/>
  <line x1="887" y1="1163" x2="893" y2="1163" stroke="#5EEAD4" stroke-width="1.5"/>
  <line x1="887" y1="1211" x2="893" y2="1211" stroke="#5EEAD4" stroke-width="1.5"/>
  <line x1="887" y1="1259" x2="893" y2="1259" stroke="#5EEAD4" stroke-width="1.5"/>
  <line x1="887" y1="1307" x2="893" y2="1307" stroke="#5EEAD4" stroke-width="1.5"/>
  <line x1="893" y1="1115" x2="893" y2="1307" stroke="#5EEAD4" stroke-width="1.5"/>
  <line x1="893" y1="1149" x2="910" y2="1149" stroke="#5EEAD4" stroke-width="2" marker-end="url(#arrowCyan)"/>
  <line x1="893" y1="1274" x2="910" y2="1274" stroke="#5EEAD4" stroke-width="2" marker-end="url(#arrowCyan)"/>

  <!-- ====== COLUMN 4: Outputs ====== -->
  <!-- Output 1: Playwright 測試腳本 -->
  <rect x="912" y="1092" width="608" height="115" rx="12" fill="#0E2730" stroke="#22D3EE" stroke-width="1.5"/>
  <rect x="912" y="1092" width="608" height="32" rx="12" fill="#0D2B3E"/>
  <text x="932" y="1114" fill="#22D3EE" font-size="13" font-weight="700">自動產出：Playwright 視覺回歸測試腳本</text>
  <text x="932" y="1143" fill="#7FA9B3" font-size="12">· toHaveScreenshot() 視覺快照 · 元件狀態（Default/Hover/Disabled/Loading）</text>
  <text x="932" y="1161" fill="#7FA9B3" font-size="12">· 邊界值輸入測試 · 多斷點 RWD 截圖 · aria 可及性掃描</text>
  <text x="932" y="1179" fill="#3A6A7A" font-size="11">（可直接複製到專案執行 · CI/CD 可掛）</text>

  <!-- Output 2: 問題報告 -->
  <rect x="912" y="1217" width="608" height="115" rx="12" fill="#1A1020" stroke="#A78BFA" stroke-width="1.5"/>
  <rect x="912" y="1217" width="608" height="32" rx="12" fill="#1E1235"/>
  <text x="932" y="1239" fill="#A78BFA" font-size="13" font-weight="700">自動產出：問題清單 P0 / P1 / P2 報告</text>
  <text x="932" y="1268" fill="#9F8FC4" font-size="12">· P0 上線阻擋（功能不可用 / 造成業務損失）</text>
  <text x="932" y="1286" fill="#9F8FC4" font-size="12">· P1 視覺嚴重偏差 / 功能殘缺（本 Sprint 修）</text>
  <text x="932" y="1304" fill="#9F8FC4" font-size="12">· P2 可及性 / 小視覺差異（列 backlog）</text>
  <text x="932" y="1322" fill="#4A3A6A" font-size="11">（含 SPEC 條目對照 · 建議修復方案 · 截圖標注）</text>

  <!-- ====== Bottom usage note ====== -->
  <rect x="60" y="1352" width="1480" height="50" rx="12" fill="#0D1421" stroke="#243a63"/>
  <text x="90" y="1372" fill="#64748B" font-size="13" font-weight="700">使用方式 →</text>
  <text x="200" y="1372" fill="#8FA3C6" font-size="13">claude.ai → SWAG QA Project → 上傳 SPEC + Figma 截圖 → 輸入指令：</text>
  <text x="90" y="1393" fill="#5EEAD4" font-size="12.5">「請對上傳的 SPEC 和 Figma 設計稿執行完整 Design QA，包含視覺比對、SPEC 符合性、可及性稽核，並產出 Playwright 測試腳本」</text>
</svg>
